<?xml version="1.0" encoding="UTF-8" standalone="no"?>
<!-- Created with Inkscape (http://www.inkscape.org/) -->

<svg
   xmlns:dc="http://purl.org/dc/elements/1.1/"
   xmlns:cc="http://creativecommons.org/ns#"
   xmlns:rdf="http://www.w3.org/1999/02/22-rdf-syntax-ns#"
   xmlns:svg="http://www.w3.org/2000/svg"
   xmlns="http://www.w3.org/2000/svg"
   xmlns:xlink="http://www.w3.org/1999/xlink"
   xmlns:sodipodi="http://sodipodi.sourceforge.net/DTD/sodipodi-0.dtd"
   xmlns:inkscape="http://www.inkscape.org/namespaces/inkscape"
   width="72.162773mm"
   height="105.22042mm"
   viewBox="0 0 72.162773 105.22042"
   version="1.1"
   id="svg1494"
   inkscape:version="0.92.3 (2405546, 2018-03-11)"
   sodipodi:docname="bin_closed.svg">
  <defs
     id="defs1488">
    <linearGradient
       inkscape:collect="always"
       xlink:href="#linearGradient1479"
       id="linearGradient1481"
       x1="48.646072"
       y1="126.71385"
       x2="113.32026"
       y2="126.71385"
       gradientUnits="userSpaceOnUse"
       gradientTransform="translate(-36.871816,7.2162772)" />
    <linearGradient
       id="linearGradient1479"
       inkscape:collect="always">
      <stop
         id="stop1483"
         offset="0"
         style="stop-color:#ffc500;stop-opacity:1;" />
      <stop
         id="stop1485"
         offset="1"
         style="stop-color:#eca600;stop-opacity:1" />
    </linearGradient>
  </defs>
  <sodipodi:namedview
     id="base"
     pagecolor="#ffffff"
     bordercolor="#666666"
     borderopacity="1.0"
     inkscape:pageopacity="0.0"
     inkscape:pageshadow="2"
     inkscape:zoom="0.35"
     inkscape:cx="-175.05799"
     inkscape:cy="-35.443977"
     inkscape:document-units="mm"
     inkscape:current-layer="layer1"
     showgrid="false"
     inkscape:window-width="1920"
     inkscape:window-height="1013"
     inkscape:window-x="-9"
     inkscape:window-y="-9"
     inkscape:window-maximized="1" />
  <metadata
     id="metadata1491">
    <rdf:RDF>
      <cc:Work
         rdf:about="">
        <dc:format>image/svg+xml</dc:format>
        <dc:type
           rdf:resource="http://purl.org/dc/dcmitype/StillImage" />
        <dc:title></dc:title>
      </cc:Work>
    </rdf:RDF>
  </metadata>
  <g
     inkscape:label="Layer 1"
     inkscape:groupmode="layer"
     id="layer1"
     transform="translate(-25.906711,-34.235029)">
    <g
       id="g9742"
       transform="translate(17.876747,-40.52891)"
       inkscape:export-xdpi="175.99103"
       inkscape:export-ydpi="175.99103">
      <rect
         inkscape:export-ydpi="175.97914"
         inkscape:export-xdpi="175.97914"
         inkscape:export-filename="C:\Users\artoa\bin_closed.png"
         ry="0.8993963"
         y="74.763939"
         x="15.246243"
         height="5.5417385"
         width="57.730217"
         id="rect1457-5-5"
         style="fill:#ffce44;fill-opacity:1;fill-rule:nonzero;stroke:none;stroke-width:5.09720087;stroke-miterlimit:4;stroke-dasharray:none;stroke-opacity:1" />
      <rect
         inkscape:export-ydpi="175.97914"
         inkscape:export-xdpi="175.97914"
         inkscape:export-filename="C:\Users\artoa\bin_closed.png"
         ry="0.8993963"
         y="78.189011"
         x="12.039009"
         height="5.5417385"
         width="64.144684"
         id="rect1457-5"
         style="fill:#ffc524;fill-opacity:1;fill-rule:nonzero;stroke:none;stroke-width:5.37292099;stroke-miterlimit:4;stroke-dasharray:none;stroke-opacity:1" />
      <rect
         inkscape:export-ydpi="175.97914"
         inkscape:export-xdpi="175.97914"
         inkscape:export-filename="C:\Users\artoa\bin_closed.png"
         ry="0.8993963"
         y="81.614075"
         x="8.0299644"
         height="5.5417385"
         width="72.162773"
         id="rect1457-0"
         style="fill:#e09f00;fill-opacity:1;fill-rule:nonzero;stroke:none;stroke-width:5.69884348;stroke-miterlimit:4;stroke-dasharray:none;stroke-opacity:1" />
      <g
         id="g9538">
        <g
           id="g9520">
          <g
             id="g9433">
            <rect
               style="fill:#1c252e;fill-opacity:1;fill-rule:nonzero;stroke:none;stroke-width:10;stroke-miterlimit:4;stroke-dasharray:none;stroke-opacity:1"
               id="rect1440"
               width="7.4835467"
               height="21.648832"
               x="67.88623"
               y="158.33553"
               ry="3.7417734"
               inkscape:export-filename="C:\Users\artoa\bin_closed.png"
               inkscape:export-xdpi="175.97914"
               inkscape:export-ydpi="175.97914" />
            <rect
               style="fill:#1c252e;fill-opacity:1;fill-rule:nonzero;stroke:none;stroke-width:10;stroke-miterlimit:4;stroke-dasharray:none;stroke-opacity:1"
               id="rect1440-3"
               width="7.4835467"
               height="21.648832"
               x="12.852905"
               y="158.33553"
               ry="3.7417734"
               inkscape:export-filename="C:\Users\artoa\bin_closed.png"
               inkscape:export-xdpi="175.97914"
               inkscape:export-ydpi="175.97914" />
            <path
               style="fill:url(#linearGradient1481);fill-opacity:1;fill-rule:nonzero;stroke:none;stroke-width:8.55706215;stroke-miterlimit:4;stroke-dasharray:none;stroke-opacity:1"
               d="m 11.774255,90.597002 h 64.67419 l -7.18869,86.666248 H 18.962934 Z"
               id="rect1436"
               inkscape:connector-curvature="0"
               sodipodi:nodetypes="ccccc"
               inkscape:export-filename="C:\Users\artoa\bin_closed.png"
               inkscape:export-xdpi="175.97914"
               inkscape:export-ydpi="175.97914" />
          </g>
          <path
             sodipodi:nodetypes="sssssss"
             inkscape:connector-curvature="0"
             id="rect9504"
             d="m 37.560493,175.57947 h 13.101713 c 0.829177,0 3.084209,1.1967 3.084209,2.02588 0,0.82917 -0.667532,0.96754 -1.496709,0.96754 H 35.972993 c -0.829176,0 -1.496708,-0.13837 -1.496708,-0.96754 0,-0.82918 2.255032,-2.02588 3.084208,-2.02588 z"
             style="fill:#333333;fill-opacity:1;fill-rule:nonzero;stroke:none;stroke-width:0;stroke-miterlimit:4;stroke-dasharray:none;stroke-opacity:1" />
        </g>
        <rect
           style="fill:#e09f00;fill-opacity:1;fill-rule:nonzero;stroke:none;stroke-width:5.69884348;stroke-miterlimit:4;stroke-dasharray:none;stroke-opacity:1"
           id="rect1457"
           width="72.162773"
           height="5.5417385"
           x="8.0299644"
           y="87.155815"
           ry="0.8993963"
           inkscape:export-filename="C:\Users\artoa\bin_closed.png"
           inkscape:export-xdpi="175.97914"
           inkscape:export-ydpi="175.97914" />
      </g>
      <g
         inkscape:export-ydpi="175.97914"
         inkscape:export-xdpi="175.97914"
         inkscape:export-filename="C:\Users\artoa\bin_closed.png"
         style="fill:#f1f1f1;fill-opacity:1"
         id="g828"
         transform="matrix(0.14896687,0,0,0.14896687,3.075665,94.04148)">
        <path
           style="clip-rule:evenodd;fill:#f1f1f1;fill-opacity:1;fill-rule:evenodd"
           inkscape:connector-curvature="0"
           id="path826"
           d="m 352.2,204.9 c 0.899,4.666 0,8.949 -2.7,12.85 -0.434,0.8 -1.017,1.616 -1.75,2.45 -0.066,0.066 -0.116,0.133 -0.15,0.2 l -22.2,35.2 c -0.567,0.867 -1.4,1.733 -2.5,2.601 -2.233,1.733 -4.667,2.583 -7.301,2.55 L 296.9,260.5 296.65,275 278.3,243.1 l 18.45,-34.149 -0.4,16.649 25.851,0.2 -20.201,-35.15 32.4,-18.7 16.449,28.75 c 0.634,1.366 1.085,2.767 1.351,4.2 z m -127.85,-42.35 16.1,-29 c 0.833,-1.2 1.8,-2.3 2.9,-3.3 3.533,-3.167 7.667,-4.6 12.4,-4.3 l 2.9,0.5 41.95,0.45 3.551,0.8 c 2.633,1 4.6,2.633 5.899,4.9 l 9.5,16.15 12.55,-7.3 -17.8,32.2 -38.8,1.9 14.5,-8.25 -13.1,-22.25 -19.75,35.55 z m -25.95,15.3 h 36.85 l 20.4,33 -14.25,-8.65 -12.9,22.3 h 40.45 l 0.05,37.45 h -31.4 c -1.833,0.1 -3.867,-0.25 -6.1,-1.05 -4.433,-1.534 -7.667,-4.434 -9.7,-8.7 -0.466,-0.8 -0.867,-1.717 -1.2,-2.75 L 200.9,212.4 c -0.467,-0.934 -0.8,-2.084 -1,-3.45 -0.4,-2.767 0.083,-5.283 1.45,-7.55 l 9.55,-16.101 z" />
      </g>
      <g
         transform="translate(-2.6908895,62.145537)"
         id="g1787">
        <rect
           style="fill:#d09500;fill-opacity:1;fill-rule:nonzero;stroke:none;stroke-width:5.42326117;stroke-miterlimit:4;stroke-dasharray:none;stroke-opacity:1"
           id="rect1723"
           width="1.8520833"
           height="3.968749"
           x="28.310417"
           y="30.615988"
           ry="0" />
        <rect
           style="fill:#d09500;fill-opacity:1;fill-rule:nonzero;stroke:none;stroke-width:5.42326164;stroke-miterlimit:4;stroke-dasharray:none;stroke-opacity:1"
           id="rect1723-3"
           width="1.8520833"
           height="3.968749"
           x="63.441978"
           y="30.615988"
           ry="0" />
        <rect
           style="fill:#d09500;fill-opacity:1;fill-rule:nonzero;stroke:none;stroke-width:5.42326164;stroke-miterlimit:4;stroke-dasharray:none;stroke-opacity:1"
           id="rect1723-6"
           width="1.8520833"
           height="3.968749"
           x="45.876198"
           y="30.615988"
           ry="0" />
      </g>
    </g>
  </g>
</svg>
