<?xml version="1.0" encoding="UTF-8" standalone="no"?>
<!-- Created with Inkscape (http://www.inkscape.org/) -->

<svg
   xmlns:dc="http://purl.org/dc/elements/1.1/"
   xmlns:cc="http://creativecommons.org/ns#"
   xmlns:rdf="http://www.w3.org/1999/02/22-rdf-syntax-ns#"
   xmlns:svg="http://www.w3.org/2000/svg"
   xmlns="http://www.w3.org/2000/svg"
   xmlns:xlink="http://www.w3.org/1999/xlink"
   xmlns:sodipodi="http://sodipodi.sourceforge.net/DTD/sodipodi-0.dtd"
   xmlns:inkscape="http://www.inkscape.org/namespaces/inkscape"
   width="72.162773mm"
   height="106.27874mm"
   viewBox="0 0 72.162773 106.27874"
   version="1.1"
   id="svg1494"
   inkscape:version="0.92.3 (2405546, 2018-03-11)"
   sodipodi:docname="bin_closed.svg">
  <defs
     id="defs1488">
    <linearGradient
       inkscape:collect="always"
       xlink:href="#linearGradient1479"
       id="linearGradient1481"
       x1="48.646072"
       y1="126.71385"
       x2="113.32026"
       y2="126.71385"
       gradientUnits="userSpaceOnUse"
       gradientTransform="translate(-34.065486,-2.6994218)" />
    <linearGradient
       id="linearGradient1479"
       inkscape:collect="always">
      <stop
         id="stop1483"
         offset="0"
         style="stop-color:#ffc500;stop-opacity:1;" />
      <stop
         id="stop1485"
         offset="1"
         style="stop-color:#eca600;stop-opacity:1" />
    </linearGradient>
  </defs>
  <sodipodi:namedview
     id="base"
     pagecolor="#ffffff"
     bordercolor="#666666"
     borderopacity="1.0"
     inkscape:pageopacity="0.0"
     inkscape:pageshadow="2"
     inkscape:zoom="1.979899"
     inkscape:cx="-46.879896"
     inkscape:cy="164.02051"
     inkscape:document-units="mm"
     inkscape:current-layer="layer1"
     showgrid="false"
     inkscape:window-width="1920"
     inkscape:window-height="1013"
     inkscape:window-x="-9"
     inkscape:window-y="-9"
     inkscape:window-maximized="1" />
  <metadata
     id="metadata1491">
    <rdf:RDF>
      <cc:Work
         rdf:about="">
        <dc:format>image/svg+xml</dc:format>
        <dc:type
           rdf:resource="http://purl.org/dc/dcmitype/StillImage" />
        <dc:title />
      </cc:Work>
    </rdf:RDF>
  </metadata>
  <g
     inkscape:label="Layer 1"
     inkscape:groupmode="layer"
     id="layer1"
     transform="translate(40.015065,-20.712968)">
    <g
       transform="translate(-50.851359,-44.135276)"
       id="g3433">
      <rect
         inkscape:export-ydpi="175.97914"
         inkscape:export-xdpi="175.97914"
         inkscape:export-filename="C:\Users\artoa\bin_closed.png"
         ry="0.8993963"
         y="64.848244"
         x="18.052572"
         height="5.5417385"
         width="57.730217"
         id="rect1457-5-5"
         style="fill:#ffce44;fill-opacity:1;fill-rule:nonzero;stroke:none;stroke-width:5.09720087;stroke-miterlimit:4;stroke-dasharray:none;stroke-opacity:1" />
      <rect
         inkscape:export-ydpi="175.97914"
         inkscape:export-xdpi="175.97914"
         inkscape:export-filename="C:\Users\artoa\bin_closed.png"
         ry="0.8993963"
         y="68.273315"
         x="14.845339"
         height="5.5417385"
         width="64.144684"
         id="rect1457-5"
         style="fill:#ffc524;fill-opacity:1;fill-rule:nonzero;stroke:none;stroke-width:5.37292099;stroke-miterlimit:4;stroke-dasharray:none;stroke-opacity:1" />
      <rect
         inkscape:export-ydpi="175.97914"
         inkscape:export-xdpi="175.97914"
         inkscape:export-filename="C:\Users\artoa\bin_closed.png"
         ry="0.8993963"
         y="71.69838"
         x="10.836294"
         height="5.5417385"
         width="72.162773"
         id="rect1457-0"
         style="fill:#e09f00;fill-opacity:1;fill-rule:nonzero;stroke:none;stroke-width:5.69884348;stroke-miterlimit:4;stroke-dasharray:none;stroke-opacity:1" />
      <rect
         inkscape:export-ydpi="175.97914"
         inkscape:export-xdpi="175.97914"
         inkscape:export-filename="C:\Users\artoa\bin_closed.png"
         ry="3.7417734"
         y="149.47815"
         x="70.692558"
         height="21.648832"
         width="7.4835467"
         id="rect1440"
         style="fill:#1c252e;fill-opacity:1;fill-rule:nonzero;stroke:none;stroke-width:10;stroke-miterlimit:4;stroke-dasharray:none;stroke-opacity:1" />
      <rect
         inkscape:export-ydpi="175.97914"
         inkscape:export-xdpi="175.97914"
         inkscape:export-filename="C:\Users\artoa\bin_closed.png"
         ry="3.7417734"
         y="149.47815"
         x="15.659235"
         height="21.648832"
         width="7.4835467"
         id="rect1440-3"
         style="fill:#1c252e;fill-opacity:1;fill-rule:nonzero;stroke:none;stroke-width:10;stroke-miterlimit:4;stroke-dasharray:none;stroke-opacity:1" />
      <path
         inkscape:export-ydpi="175.97914"
         inkscape:export-xdpi="175.97914"
         inkscape:export-filename="C:\Users\artoa\bin_closed.png"
         sodipodi:nodetypes="ccccc"
         inkscape:connector-curvature="0"
         id="rect1436"
         d="m 14.580585,80.681303 h 64.67419 l -7.18869,86.666247 H 21.769264 Z"
         style="fill:url(#linearGradient1481);fill-opacity:1;fill-rule:nonzero;stroke:none;stroke-width:8.55706215;stroke-miterlimit:4;stroke-dasharray:none;stroke-opacity:1" />
      <path
         sodipodi:nodetypes="sssssss"
         inkscape:connector-curvature="0"
         id="rect9504"
         d="m 40.366823,165.66377 h 13.101713 c 0.829177,0 3.084209,1.1967 3.084209,2.02588 0,0.82917 -0.667532,0.96754 -1.496709,0.96754 H 38.779323 c -0.829176,0 -1.496708,-0.13837 -1.496708,-0.96754 0,-0.82918 2.255032,-2.02588 3.084208,-2.02588 z"
         style="fill:#333333;fill-opacity:1;fill-rule:nonzero;stroke:none;stroke-width:0;stroke-miterlimit:4;stroke-dasharray:none;stroke-opacity:1" />
      <rect
         inkscape:export-ydpi="175.97914"
         inkscape:export-xdpi="175.97914"
         inkscape:export-filename="C:\Users\artoa\bin_closed.png"
         ry="0.8993963"
         y="77.24012"
         x="10.836294"
         height="5.5417385"
         width="72.162773"
         id="rect1457"
         style="fill:#e09f00;fill-opacity:1;fill-rule:nonzero;stroke:none;stroke-width:5.69884348;stroke-miterlimit:4;stroke-dasharray:none;stroke-opacity:1" />
      <path
         d="m 58.348127,114.64909 c 0.133921,0.69508 0,1.33311 -0.402211,1.91423 -0.06465,0.11917 -0.151499,0.24073 -0.260692,0.36497 -0.0098,0.01 -0.01728,0.0198 -0.02235,0.0298 l -3.307065,5.24363 c -0.08446,0.12916 -0.208553,0.25816 -0.372417,0.38747 -0.332643,0.25816 -0.695228,0.38478 -1.087607,0.37986 l -2.785531,-0.0374 -0.03724,2.16002 -2.733542,-4.75204 2.748439,-5.08707 -0.05959,2.48015 3.850942,0.0298 -3.009279,-5.23619 4.826526,-2.78568 2.450356,4.2828 c 0.09445,0.20349 0.161629,0.41219 0.201255,0.62566 z m -19.045415,-6.30874 2.398367,-4.32004 c 0.124089,-0.17876 0.26814,-0.34263 0.432004,-0.49159 0.5263,-0.47178 1.142129,-0.68525 1.847189,-0.64056 l 0.432004,0.0745 6.24916,0.067 0.528981,0.11917 c 0.39223,0.14897 0.685248,0.39223 0.878756,0.72994 l 1.415185,2.40581 1.869535,-1.08746 -2.651611,4.79674 -5.779914,0.28304 2.160019,-1.22898 -1.951466,-3.31451 -2.942095,5.29577 z m -3.86569,2.27919 h 5.489429 l 3.038924,4.91591 -2.122778,-1.28857 -1.921672,3.32196 h 6.02571 l 0.0074,5.57881 h -4.67756 c -0.273056,0.0149 -0.576055,-0.0372 -0.908698,-0.15641 -0.66037,-0.22852 -1.142129,-0.66052 -1.444978,-1.29601 -0.06942,-0.11918 -0.129155,-0.25578 -0.17876,-0.40966 l -2.934648,-5.51923 c -0.06957,-0.13913 -0.119173,-0.31044 -0.148967,-0.51393 -0.05959,-0.41219 0.01237,-0.78699 0.216002,-1.1247 l 1.422634,-2.39852 z"
         id="path826"
         inkscape:connector-curvature="0"
         style="clip-rule:evenodd;fill:#f1f1f1;fill-opacity:1;fill-rule:evenodd;stroke-width:0.14896686" />
      <rect
         ry="0"
         y="82.845825"
         x="28.425858"
         height="3.968749"
         width="1.8520833"
         id="rect1723"
         style="fill:#d09500;fill-opacity:1;fill-rule:nonzero;stroke:none;stroke-width:5.42326117;stroke-miterlimit:4;stroke-dasharray:none;stroke-opacity:1" />
      <rect
         ry="0"
         y="82.845825"
         x="63.557419"
         height="3.968749"
         width="1.8520833"
         id="rect1723-3"
         style="fill:#d09500;fill-opacity:1;fill-rule:nonzero;stroke:none;stroke-width:5.42326164;stroke-miterlimit:4;stroke-dasharray:none;stroke-opacity:1" />
      <rect
         ry="0"
         y="82.845825"
         x="45.991638"
         height="3.968749"
         width="1.8520833"
         id="rect1723-6"
         style="fill:#d09500;fill-opacity:1;fill-rule:nonzero;stroke:none;stroke-width:5.42326164;stroke-miterlimit:4;stroke-dasharray:none;stroke-opacity:1" />
    </g>
  </g>
</svg>
